# xmcd
#
# Track frame offsets: 
#        150
#        16624
#        35783
#        53891
#        71577
#        88368
#        104123
#        117127
#        132337
#        148261
#
# Disc length: 2301 seconds
#
# Revision: 0
# Processed by: cddbd v1.5.2PL0 Copyright (c) Steve Scherf et al.
# Submitted via: ExactAudioCopy v1.0b3
#
DISCID=9608fb0a
DTITLE=Sherwin Linton - Christmas Memories
DYEAR=1996
DGENRE=Country
TTITLE0=Santa Got A DWI
TTITLE1=Ruby Red Nose
TTITLE2=Rock-A-Billy Christmas
TTITLE3=Grandpa Shot A Reindeer
TTITLE4=A Cartridge In A Bare Tree
TTITLE5=The Christmas Eve Train
TTITLE6=An Old Christmas Card
TTITLE7=Evie The Evergreen
TTITLE8=Christmas Memories
TTITLE9=The Christmas Guest
EXTD=
EXTT0=
EXTT1=
EXTT2=
EXTT3=
EXTT4=
EXTT5=
EXTT6=
EXTT7=
EXTT8=
EXTT9=
PLAYORDER=
